<svg width="40" height="39" viewBox="0 0 40 39" fill="none" xmlns="http://www.w3.org/2000/svg">
<path d="M23.4863 18.1659H26.9744C27.9933 18.1659 28.8215 17.379 28.8215 16.4106V1.7553C28.8215 0.786986 27.9933 0 26.9744 0H23.4863C22.4673 0 21.6392 0.786986 21.6392 1.7553V16.4106C21.6392 17.379 22.4635 18.1659 23.4863 18.1659Z" fill="#0594C9"/>
<path d="M16.5138 0.0917969H13.0257C12.0068 0.0917969 11.1787 0.878783 11.1787 1.8471V36.2569C11.1787 37.2252 12.0068 38.0122 13.0257 38.0122H16.5138C17.5328 38.0122 18.3609 37.2252 18.3609 36.2569V1.8471C18.3609 0.878783 17.5328 0.0917969 16.5138 0.0917969Z" fill="#0594C9"/>
<path d="M33.2176 28.0484H38.1483C38.7704 28.0484 39.2741 27.5697 39.2741 26.9785V15.7214C39.2741 12.5407 36.5607 9.96582 33.2176 9.96582C32.5956 9.96582 32.092 10.4446 32.092 11.0357V26.9749C32.092 27.5697 32.5956 28.0484 33.2176 28.0484Z" fill="#0594C9"/>
<path d="M39.459 32.673L36.9899 30.3266C36.2686 29.6411 35.097 29.6411 34.3758 30.3266L31.9065 32.673C31.1851 33.3585 31.1851 34.4719 31.9065 35.1573L34.3758 37.5038C35.097 38.1893 36.2686 38.1893 36.9899 37.5038L39.459 35.1573C40.1803 34.4682 40.1803 33.3585 39.459 32.673Z" fill="#4AC2E0"/>
<path d="M21.4521 25.251C20.7308 24.5656 20.7308 23.4522 21.4521 22.7668L23.9213 20.4203C24.6426 19.7349 25.8142 19.7349 26.5354 20.4203L29.0046 22.7668C29.7258 23.4522 29.7258 24.5656 29.0046 25.251L26.44 27.6737C25.7187 28.3591 25.7187 29.5559 26.44 30.2413L29.0046 32.6712C29.7258 33.3567 29.7258 34.4701 29.0046 35.1555L26.5354 37.5019C25.8142 38.1873 24.6426 38.1873 23.9213 37.5019L21.4521 35.1555C20.7308 34.4701 20.7308 33.3567 21.4521 32.6712L24.0091 30.2413C24.7303 29.5559 24.7303 28.3591 24.0091 27.6737L21.4521 25.251Z" fill="#4AC2E0"/>
<path d="M6.77912 19.9277H1.84847C1.22641 19.9277 0.722656 20.4065 0.722656 20.9977V32.2548C0.722656 35.4354 3.43605 38.0103 6.77912 38.0103C7.40117 38.0103 7.9049 37.5316 7.9049 36.9404V21.0012C7.9049 20.4102 7.40117 19.9277 6.77912 19.9277Z" fill="#0594C9"/>
<path d="M0.54096 15.3067L3.01011 17.6532C3.73141 18.3387 4.90304 18.3387 5.62428 17.6532L8.09346 15.3067C8.8147 14.6213 8.8147 13.508 8.09346 12.8225L5.62428 10.476C4.90304 9.79055 3.73141 9.79055 3.01011 10.476L0.54096 12.8225C-0.18032 13.508 -0.18032 14.6213 0.54096 15.3067Z" fill="#4AC2E0"/>
</svg>
